solid 3D Shape00000002_6EFB8D09-0000-2824-5C5A82AC000E7AC9 A.1 
  facet normal 0.000000e+00 -1.603961e-01 9.870527e-01
    outer loop
      vertex 0.000000e+00 2.075473e+01 2.000000e+00
      vertex 2.900000e+00 2.075473e+01 2.000000e+00
      vertex 0.000000e+00 2.302505e+01 2.368927e+00
    endloop
  endfacet
  facet normal 0.000000e+00 -1.603961e-01 9.870527e-01
    outer loop
      vertex 0.000000e+00 2.302505e+01 2.368927e+00
      vertex 2.900000e+00 2.075473e+01 2.000000e+00
      vertex 2.900000e+00 2.302505e+01 2.368927e+00
    endloop
  endfacet
  facet normal 0.000000e+00 -0.000000e+00 1.000000e+00
    outer loop
      vertex 2.900000e+00 2.483581e+00 2.000000e+00
      vertex 2.900000e+00 2.075473e+01 2.000000e+00
      vertex 0.000000e+00 2.483581e+00 2.000000e+00
    endloop
  endfacet
  facet normal 0.000000e+00 0.000000e+00 1.000000e+00
    outer loop
      vertex 0.000000e+00 2.483581e+00 2.000000e+00
      vertex 2.900000e+00 2.075473e+01 2.000000e+00
      vertex 0.000000e+00 2.075473e+01 2.000000e+00
    endloop
  endfacet
  facet normal -0.000000e+00 1.732330e-01 9.848809e-01
    outer loop
      vertex 0.000000e+00 4.157592e-01 2.363714e+00
      vertex 2.900000e+00 4.157592e-01 2.363714e+00
      vertex 0.000000e+00 2.483581e+00 2.000000e+00
    endloop
  endfacet
  facet normal -0.000000e+00 1.732330e-01 9.848809e-01
    outer loop
      vertex 0.000000e+00 2.483581e+00 2.000000e+00
      vertex 2.900000e+00 4.157592e-01 2.363714e+00
      vertex 2.900000e+00 2.483581e+00 2.000000e+00
    endloop
  endfacet
  facet normal 0.000000e+00 -3.205795e-02 -9.994860e-01
    outer loop
      vertex 0.000000e+00 3.849506e-01 -2.368927e+00
      vertex 2.900000e+00 3.849506e-01 -2.368927e+00
      vertex 0.000000e+00 -5.359671e-01 -2.339389e+00
    endloop
  endfacet
  facet normal 0.000000e+00 -3.205795e-02 -9.994860e-01
    outer loop
      vertex 0.000000e+00 -5.359671e-01 -2.339389e+00
      vertex 2.900000e+00 3.849506e-01 -2.368927e+00
      vertex 2.900000e+00 -5.359671e-01 -2.339389e+00
    endloop
  endfacet
  facet normal 0.000000e+00 -4.062752e-01 -9.137508e-01
    outer loop
      vertex 0.000000e+00 -5.359671e-01 -2.339389e+00
      vertex 2.900000e+00 -5.359671e-01 -2.339389e+00
      vertex 0.000000e+00 -1.377889e+00 -1.965050e+00
    endloop
  endfacet
  facet normal 0.000000e+00 -4.062752e-01 -9.137508e-01
    outer loop
      vertex 0.000000e+00 -1.377889e+00 -1.965050e+00
      vertex 2.900000e+00 -5.359671e-01 -2.339389e+00
      vertex 2.900000e+00 -1.377889e+00 -1.965050e+00
    endloop
  endfacet
  facet normal 0.000000e+00 -7.206121e-01 -6.933383e-01
    outer loop
      vertex 0.000000e+00 -1.377889e+00 -1.965050e+00
      vertex 2.900000e+00 -1.377889e+00 -1.965050e+00
      vertex 0.000000e+00 -2.016725e+00 -1.301085e+00
    endloop
  endfacet
  facet normal 0.000000e+00 -7.206121e-01 -6.933383e-01
    outer loop
      vertex 0.000000e+00 -2.016725e+00 -1.301085e+00
      vertex 2.900000e+00 -1.377889e+00 -1.965050e+00
      vertex 2.900000e+00 -2.016725e+00 -1.301085e+00
    endloop
  endfacet
  facet normal 0.000000e+00 -9.287385e-01 -3.707357e-01
    outer loop
      vertex 0.000000e+00 -2.016725e+00 -1.301085e+00
      vertex 2.900000e+00 -2.016725e+00 -1.301085e+00
      vertex 0.000000e+00 -2.358317e+00 -4.453531e-01
    endloop
  endfacet
  facet normal 0.000000e+00 -9.287385e-01 -3.707357e-01
    outer loop
      vertex 0.000000e+00 -2.358317e+00 -4.453531e-01
      vertex 2.900000e+00 -2.016725e+00 -1.301085e+00
      vertex 2.900000e+00 -2.358317e+00 -4.453531e-01
    endloop
  endfacet
  facet normal 0.000000e+00 -9.999788e-01 6.509867e-03
    outer loop
      vertex 0.000000e+00 -2.358317e+00 -4.453531e-01
      vertex 2.900000e+00 -2.358317e+00 -4.453531e-01
      vertex 0.000000e+00 -2.352319e+00 4.760185e-01
    endloop
  endfacet
  facet normal 0.000000e+00 -9.999788e-01 6.509867e-03
    outer loop
      vertex 0.000000e+00 -2.352319e+00 4.760185e-01
      vertex 2.900000e+00 -2.358317e+00 -4.453531e-01
      vertex 2.900000e+00 -2.352319e+00 4.760185e-01
    endloop
  endfacet
  facet normal 0.000000e+00 -9.238332e-01 3.827954e-01
    outer loop
      vertex 0.000000e+00 -2.352319e+00 4.760185e-01
      vertex 2.900000e+00 -2.352319e+00 4.760185e-01
      vertex 0.000000e+00 -1.999615e+00 1.327230e+00
    endloop
  endfacet
  facet normal 0.000000e+00 -9.238332e-01 3.827954e-01
    outer loop
      vertex 0.000000e+00 -1.999615e+00 1.327230e+00
      vertex 2.900000e+00 -2.352319e+00 4.760185e-01
      vertex 2.900000e+00 -1.999615e+00 1.327230e+00
    endloop
  endfacet
  facet normal 0.000000e+00 -7.115244e-01 7.026614e-01
    outer loop
      vertex 0.000000e+00 -1.999615e+00 1.327230e+00
      vertex 2.900000e+00 -1.999615e+00 1.327230e+00
      vertex 0.000000e+00 -1.352189e+00 1.982823e+00
    endloop
  endfacet
  facet normal 0.000000e+00 -7.115244e-01 7.026614e-01
    outer loop
      vertex 0.000000e+00 -1.352189e+00 1.982823e+00
      vertex 2.900000e+00 -1.999615e+00 1.327230e+00
      vertex 2.900000e+00 -1.352189e+00 1.982823e+00
    endloop
  endfacet
  facet normal 0.000000e+00 -3.943447e-01 9.189625e-01
    outer loop
      vertex 0.000000e+00 -1.352189e+00 1.982823e+00
      vertex 2.900000e+00 -1.352189e+00 1.982823e+00
      vertex 0.000000e+00 -5.054649e-01 2.346168e+00
    endloop
  endfacet
  facet normal 0.000000e+00 -3.943447e-01 9.189625e-01
    outer loop
      vertex 0.000000e+00 -5.054649e-01 2.346168e+00
      vertex 2.900000e+00 -1.352189e+00 1.982823e+00
      vertex 2.900000e+00 -5.054649e-01 2.346168e+00
    endloop
  endfacet
  facet normal 0.000000e+00 -1.904262e-02 9.998187e-01
    outer loop
      vertex 0.000000e+00 -5.054649e-01 2.346168e+00
      vertex 2.900000e+00 -5.054649e-01 2.346168e+00
      vertex 0.000000e+00 4.157592e-01 2.363714e+00
    endloop
  endfacet
  facet normal 0.000000e+00 -1.904262e-02 9.998187e-01
    outer loop
      vertex 0.000000e+00 4.157592e-01 2.363714e+00
      vertex 2.900000e+00 -5.054649e-01 2.346168e+00
      vertex 2.900000e+00 4.157592e-01 2.363714e+00
    endloop
  endfacet
  facet normal 0.000000e+00 1.603960e-01 -9.870527e-01
    outer loop
      vertex 0.000000e+00 3.849506e-01 -2.368927e+00
      vertex 0.000000e+00 2.655268e+00 -2.000000e+00
      vertex 2.900000e+00 3.849506e-01 -2.368927e+00
    endloop
  endfacet
  facet normal 0.000000e+00 1.603960e-01 -9.870527e-01
    outer loop
      vertex 2.900000e+00 3.849506e-01 -2.368927e+00
      vertex 0.000000e+00 2.655268e+00 -2.000000e+00
      vertex 2.900000e+00 2.655268e+00 -2.000000e+00
    endloop
  endfacet
  facet normal -0.000000e+00 -0.000000e+00 -1.000000e+00
    outer loop
      vertex 2.900000e+00 2.062766e+01 -2.000000e+00
      vertex 2.900000e+00 2.655268e+00 -2.000000e+00
      vertex 0.000000e+00 2.062766e+01 -2.000000e+00
    endloop
  endfacet
  facet normal 0.000000e+00 0.000000e+00 -1.000000e+00
    outer loop
      vertex 0.000000e+00 2.062766e+01 -2.000000e+00
      vertex 2.900000e+00 2.655268e+00 -2.000000e+00
      vertex 0.000000e+00 2.655268e+00 -2.000000e+00
    endloop
  endfacet
  facet normal 0.000000e+00 -1.521308e-01 -9.883603e-01
    outer loop
      vertex 0.000000e+00 2.062766e+01 -2.000000e+00
      vertex 0.000000e+00 2.304489e+01 -2.372065e+00
      vertex 2.900000e+00 2.062766e+01 -2.000000e+00
    endloop
  endfacet
  facet normal 0.000000e+00 -1.521308e-01 -9.883603e-01
    outer loop
      vertex 2.900000e+00 2.062766e+01 -2.000000e+00
      vertex 0.000000e+00 2.304489e+01 -2.372065e+00
      vertex 2.900000e+00 2.304489e+01 -2.372065e+00
    endloop
  endfacet
  facet normal -0.000000e+00 3.087017e-02 9.995234e-01
    outer loop
      vertex 0.000000e+00 2.302505e+01 2.368927e+00
      vertex 2.900000e+00 2.302505e+01 2.368927e+00
      vertex 0.000000e+00 2.394041e+01 2.340656e+00
    endloop
  endfacet
  facet normal -0.000000e+00 3.087017e-02 9.995234e-01
    outer loop
      vertex 0.000000e+00 2.394041e+01 2.340656e+00
      vertex 2.900000e+00 2.302505e+01 2.368927e+00
      vertex 2.900000e+00 2.394041e+01 2.340656e+00
    endloop
  endfacet
  facet normal -0.000000e+00 4.030159e-01 9.151930e-01
    outer loop
      vertex 0.000000e+00 2.394041e+01 2.340656e+00
      vertex 2.900000e+00 2.394041e+01 2.340656e+00
      vertex 0.000000e+00 2.477853e+01 1.971577e+00
    endloop
  endfacet
  facet normal -0.000000e+00 4.030159e-01 9.151930e-01
    outer loop
      vertex 0.000000e+00 2.477853e+01 1.971577e+00
      vertex 2.900000e+00 2.394041e+01 2.340656e+00
      vertex 2.900000e+00 2.477853e+01 1.971577e+00
    endloop
  endfacet
  facet normal -0.000000e+00 7.164801e-01 6.976075e-01
    outer loop
      vertex 0.000000e+00 2.477853e+01 1.971577e+00
      vertex 2.900000e+00 2.477853e+01 1.971577e+00
      vertex 0.000000e+00 2.541740e+01 1.315429e+00
    endloop
  endfacet
  facet normal -0.000000e+00 7.164801e-01 6.976075e-01
    outer loop
      vertex 0.000000e+00 2.541740e+01 1.315429e+00
      vertex 2.900000e+00 2.477853e+01 1.971577e+00
      vertex 2.900000e+00 2.541740e+01 1.315429e+00
    endloop
  endfacet
  facet normal -0.000000e+00 9.256231e-01 3.784465e-01
    outer loop
      vertex 0.000000e+00 2.541740e+01 1.315429e+00
      vertex 2.900000e+00 2.541740e+01 1.315429e+00
      vertex 0.000000e+00 2.576398e+01 4.677498e-01
    endloop
  endfacet
  facet normal -0.000000e+00 9.256231e-01 3.784465e-01
    outer loop
      vertex 0.000000e+00 2.576398e+01 4.677498e-01
      vertex 2.900000e+00 2.541740e+01 1.315429e+00
      vertex 2.900000e+00 2.576398e+01 4.677498e-01
    endloop
  endfacet
  facet normal -0.000000e+00 9.999913e-01 4.184202e-03
    outer loop
      vertex 0.000000e+00 2.576398e+01 4.677498e-01
      vertex 2.900000e+00 2.576398e+01 4.677498e-01
      vertex 0.000000e+00 2.576781e+01 -4.480354e-01
    endloop
  endfacet
  facet normal -0.000000e+00 9.999913e-01 4.184202e-03
    outer loop
      vertex 0.000000e+00 2.576781e+01 -4.480354e-01
      vertex 2.900000e+00 2.576398e+01 4.677498e-01
      vertex 2.900000e+00 2.576781e+01 -4.480354e-01
    endloop
  endfacet
  facet normal 0.000000e+00 9.287574e-01 -3.706883e-01
    outer loop
      vertex 0.000000e+00 2.576781e+01 -4.480354e-01
      vertex 2.900000e+00 2.576781e+01 -4.480354e-01
      vertex 0.000000e+00 2.542834e+01 -1.298585e+00
    endloop
  endfacet
  facet normal 0.000000e+00 9.287574e-01 -3.706883e-01
    outer loop
      vertex 0.000000e+00 2.542834e+01 -1.298585e+00
      vertex 2.900000e+00 2.576781e+01 -4.480354e-01
      vertex 2.900000e+00 2.542834e+01 -1.298585e+00
    endloop
  endfacet
  facet normal 0.000000e+00 7.222932e-01 -6.915870e-01
    outer loop
      vertex 0.000000e+00 2.542834e+01 -1.298585e+00
      vertex 2.900000e+00 2.542834e+01 -1.298585e+00
      vertex 0.000000e+00 2.479498e+01 -1.960056e+00
    endloop
  endfacet
  facet normal 0.000000e+00 7.222932e-01 -6.915870e-01
    outer loop
      vertex 0.000000e+00 2.479498e+01 -1.960056e+00
      vertex 2.900000e+00 2.542834e+01 -1.298585e+00
      vertex 2.900000e+00 2.479498e+01 -1.960056e+00
    endloop
  endfacet
  facet normal 0.000000e+00 4.106595e-01 -9.117888e-01
    outer loop
      vertex 0.000000e+00 2.479498e+01 -1.960056e+00
      vertex 2.900000e+00 2.479498e+01 -1.960056e+00
      vertex 0.000000e+00 2.395997e+01 -2.336135e+00
    endloop
  endfacet
  facet normal 0.000000e+00 4.106595e-01 -9.117888e-01
    outer loop
      vertex 0.000000e+00 2.395997e+01 -2.336135e+00
      vertex 2.900000e+00 2.479498e+01 -1.960056e+00
      vertex 2.900000e+00 2.395997e+01 -2.336135e+00
    endloop
  endfacet
  facet normal 0.000000e+00 3.923312e-02 -9.992301e-01
    outer loop
      vertex 0.000000e+00 2.395997e+01 -2.336135e+00
      vertex 2.900000e+00 2.395997e+01 -2.336135e+00
      vertex 0.000000e+00 2.304489e+01 -2.372065e+00
    endloop
  endfacet
  facet normal 0.000000e+00 3.923312e-02 -9.992301e-01
    outer loop
      vertex 0.000000e+00 2.304489e+01 -2.372065e+00
      vertex 2.900000e+00 2.395997e+01 -2.336135e+00
      vertex 2.900000e+00 2.304489e+01 -2.372065e+00
    endloop
  endfacet
  facet normal 0.000000e+00 -2.588190e-01 9.659259e-01
    outer loop
      vertex 0.000000e+00 -1.232657e-15 -1.150000e+00
      vertex 2.900000e+00 5.750000e-01 -9.959292e-01
      vertex 0.000000e+00 5.750000e-01 -9.959292e-01
    endloop
  endfacet
  facet normal 0.000000e+00 -7.071068e-01 7.071068e-01
    outer loop
      vertex 0.000000e+00 5.750000e-01 -9.959292e-01
      vertex 2.900000e+00 5.750000e-01 -9.959292e-01
      vertex 2.900000e+00 9.959292e-01 -5.750000e-01
    endloop
  endfacet
  facet normal 0.000000e+00 -7.071068e-01 7.071068e-01
    outer loop
      vertex 0.000000e+00 5.750000e-01 -9.959292e-01
      vertex 2.900000e+00 9.959292e-01 -5.750000e-01
      vertex 0.000000e+00 9.959292e-01 -5.750000e-01
    endloop
  endfacet
  facet normal 0.000000e+00 -9.659259e-01 2.588190e-01
    outer loop
      vertex 0.000000e+00 9.959292e-01 -5.750000e-01
      vertex 2.900000e+00 9.959292e-01 -5.750000e-01
      vertex 2.900000e+00 1.150000e+00 0.000000e+00
    endloop
  endfacet
  facet normal 0.000000e+00 -9.659259e-01 2.588190e-01
    outer loop
      vertex 0.000000e+00 9.959292e-01 -5.750000e-01
      vertex 2.900000e+00 1.150000e+00 0.000000e+00
      vertex 0.000000e+00 1.150000e+00 0.000000e+00
    endloop
  endfacet
  facet normal 0.000000e+00 -2.588190e-01 9.659259e-01
    outer loop
      vertex 2.900000e+00 5.750000e-01 -9.959292e-01
      vertex 0.000000e+00 -1.232657e-15 -1.150000e+00
      vertex 2.900000e+00 -1.232657e-15 -1.150000e+00
    endloop
  endfacet
  facet normal 0.000000e+00 2.588190e-01 9.659259e-01
    outer loop
      vertex 2.900000e+00 -1.232657e-15 -1.150000e+00
      vertex 0.000000e+00 -1.232657e-15 -1.150000e+00
      vertex 0.000000e+00 -5.750000e-01 -9.959292e-01
    endloop
  endfacet
  facet normal 0.000000e+00 2.588190e-01 9.659259e-01
    outer loop
      vertex 2.900000e+00 -1.232657e-15 -1.150000e+00
      vertex 0.000000e+00 -5.750000e-01 -9.959292e-01
      vertex 2.900000e+00 -5.750000e-01 -9.959292e-01
    endloop
  endfacet
  facet normal 0.000000e+00 7.071068e-01 7.071068e-01
    outer loop
      vertex 2.900000e+00 -5.750000e-01 -9.959292e-01
      vertex 0.000000e+00 -5.750000e-01 -9.959292e-01
      vertex 0.000000e+00 -9.959292e-01 -5.750000e-01
    endloop
  endfacet
  facet normal 0.000000e+00 7.071068e-01 7.071068e-01
    outer loop
      vertex 2.900000e+00 -5.750000e-01 -9.959292e-01
      vertex 0.000000e+00 -9.959292e-01 -5.750000e-01
      vertex 2.900000e+00 -9.959292e-01 -5.750000e-01
    endloop
  endfacet
  facet normal 0.000000e+00 9.659259e-01 2.588190e-01
    outer loop
      vertex 2.900000e+00 -9.959292e-01 -5.750000e-01
      vertex 0.000000e+00 -9.959292e-01 -5.750000e-01
      vertex 0.000000e+00 -1.150000e+00 1.408344e-16
    endloop
  endfacet
  facet normal 0.000000e+00 9.659259e-01 2.588190e-01
    outer loop
      vertex 2.900000e+00 -9.959292e-01 -5.750000e-01
      vertex 0.000000e+00 -1.150000e+00 1.408344e-16
      vertex 2.900000e+00 -1.150000e+00 1.408344e-16
    endloop
  endfacet
  facet normal 0.000000e+00 2.588190e-01 -9.659259e-01
    outer loop
      vertex 0.000000e+00 -1.849341e-16 1.150000e+00
      vertex 2.900000e+00 -5.750000e-01 9.959292e-01
      vertex 0.000000e+00 -5.750000e-01 9.959292e-01
    endloop
  endfacet
  facet normal 0.000000e+00 7.071068e-01 -7.071068e-01
    outer loop
      vertex 0.000000e+00 -5.750000e-01 9.959292e-01
      vertex 2.900000e+00 -5.750000e-01 9.959292e-01
      vertex 2.900000e+00 -9.959292e-01 5.750000e-01
    endloop
  endfacet
  facet normal 0.000000e+00 7.071068e-01 -7.071068e-01
    outer loop
      vertex 0.000000e+00 -5.750000e-01 9.959292e-01
      vertex 2.900000e+00 -9.959292e-01 5.750000e-01
      vertex 0.000000e+00 -9.959292e-01 5.750000e-01
    endloop
  endfacet
  facet normal 0.000000e+00 9.659259e-01 -2.588190e-01
    outer loop
      vertex 0.000000e+00 -9.959292e-01 5.750000e-01
      vertex 2.900000e+00 -9.959292e-01 5.750000e-01
      vertex 2.900000e+00 -1.150000e+00 1.408344e-16
    endloop
  endfacet
  facet normal 0.000000e+00 9.659259e-01 -2.588190e-01
    outer loop
      vertex 0.000000e+00 -9.959292e-01 5.750000e-01
      vertex 2.900000e+00 -1.150000e+00 1.408344e-16
      vertex 0.000000e+00 -1.150000e+00 1.408344e-16
    endloop
  endfacet
  facet normal 0.000000e+00 2.588190e-01 -9.659259e-01
    outer loop
      vertex 2.900000e+00 -5.750000e-01 9.959292e-01
      vertex 0.000000e+00 -1.849341e-16 1.150000e+00
      vertex 2.900000e+00 -1.849341e-16 1.150000e+00
    endloop
  endfacet
  facet normal -0.000000e+00 -2.588190e-01 -9.659259e-01
    outer loop
      vertex 2.900000e+00 -1.849341e-16 1.150000e+00
      vertex 0.000000e+00 -1.849341e-16 1.150000e+00
      vertex 0.000000e+00 5.750000e-01 9.959292e-01
    endloop
  endfacet
  facet normal 0.000000e+00 -2.588190e-01 -9.659259e-01
    outer loop
      vertex 2.900000e+00 -1.849341e-16 1.150000e+00
      vertex 0.000000e+00 5.750000e-01 9.959292e-01
      vertex 2.900000e+00 5.750000e-01 9.959292e-01
    endloop
  endfacet
  facet normal -0.000000e+00 -7.071068e-01 -7.071068e-01
    outer loop
      vertex 2.900000e+00 5.750000e-01 9.959292e-01
      vertex 0.000000e+00 5.750000e-01 9.959292e-01
      vertex 0.000000e+00 9.959292e-01 5.750000e-01
    endloop
  endfacet
  facet normal 0.000000e+00 -7.071068e-01 -7.071068e-01
    outer loop
      vertex 2.900000e+00 5.750000e-01 9.959292e-01
      vertex 0.000000e+00 9.959292e-01 5.750000e-01
      vertex 2.900000e+00 9.959292e-01 5.750000e-01
    endloop
  endfacet
  facet normal -0.000000e+00 -9.659259e-01 -2.588190e-01
    outer loop
      vertex 2.900000e+00 9.959292e-01 5.750000e-01
      vertex 0.000000e+00 9.959292e-01 5.750000e-01
      vertex 0.000000e+00 1.150000e+00 0.000000e+00
    endloop
  endfacet
  facet normal 0.000000e+00 -9.659259e-01 -2.588190e-01
    outer loop
      vertex 2.900000e+00 9.959292e-01 5.750000e-01
      vertex 0.000000e+00 1.150000e+00 0.000000e+00
      vertex 2.900000e+00 1.150000e+00 0.000000e+00
    endloop
  endfacet
  facet normal 0.000000e+00 -2.588187e-01 9.659259e-01
    outer loop
      vertex 0.000000e+00 2.341000e+01 -1.150000e+00
      vertex 2.900000e+00 2.398500e+01 -9.959292e-01
      vertex 0.000000e+00 2.398500e+01 -9.959292e-01
    endloop
  endfacet
  facet normal 0.000000e+00 -7.071071e-01 7.071065e-01
    outer loop
      vertex 0.000000e+00 2.398500e+01 -9.959292e-01
      vertex 2.900000e+00 2.398500e+01 -9.959292e-01
      vertex 2.900000e+00 2.440593e+01 -5.750000e-01
    endloop
  endfacet
  facet normal 0.000000e+00 -7.071071e-01 7.071065e-01
    outer loop
      vertex 0.000000e+00 2.398500e+01 -9.959292e-01
      vertex 2.900000e+00 2.440593e+01 -5.750000e-01
      vertex 0.000000e+00 2.440593e+01 -5.750000e-01
    endloop
  endfacet
  facet normal 0.000000e+00 -9.659262e-01 2.588177e-01
    outer loop
      vertex 0.000000e+00 2.440593e+01 -5.750000e-01
      vertex 2.900000e+00 2.440593e+01 -5.750000e-01
      vertex 2.900000e+00 2.456000e+01 0.000000e+00
    endloop
  endfacet
  facet normal 0.000000e+00 -9.659262e-01 2.588177e-01
    outer loop
      vertex 0.000000e+00 2.440593e+01 -5.750000e-01
      vertex 2.900000e+00 2.456000e+01 0.000000e+00
      vertex 0.000000e+00 2.456000e+01 0.000000e+00
    endloop
  endfacet
  facet normal 0.000000e+00 -2.588187e-01 9.659259e-01
    outer loop
      vertex 2.900000e+00 2.398500e+01 -9.959292e-01
      vertex 0.000000e+00 2.341000e+01 -1.150000e+00
      vertex 2.900000e+00 2.341000e+01 -1.150000e+00
    endloop
  endfacet
  facet normal 0.000000e+00 2.588187e-01 9.659259e-01
    outer loop
      vertex 2.900000e+00 2.341000e+01 -1.150000e+00
      vertex 0.000000e+00 2.341000e+01 -1.150000e+00
      vertex 0.000000e+00 2.283500e+01 -9.959292e-01
    endloop
  endfacet
  facet normal 0.000000e+00 2.588187e-01 9.659259e-01
    outer loop
      vertex 2.900000e+00 2.341000e+01 -1.150000e+00
      vertex 0.000000e+00 2.283500e+01 -9.959292e-01
      vertex 2.900000e+00 2.283500e+01 -9.959292e-01
    endloop
  endfacet
  facet normal 0.000000e+00 7.071071e-01 7.071065e-01
    outer loop
      vertex 2.900000e+00 2.283500e+01 -9.959292e-01
      vertex 0.000000e+00 2.283500e+01 -9.959292e-01
      vertex 0.000000e+00 2.241407e+01 -5.750000e-01
    endloop
  endfacet
  facet normal 0.000000e+00 7.071071e-01 7.071065e-01
    outer loop
      vertex 2.900000e+00 2.283500e+01 -9.959292e-01
      vertex 0.000000e+00 2.241407e+01 -5.750000e-01
      vertex 2.900000e+00 2.241407e+01 -5.750000e-01
    endloop
  endfacet
  facet normal 0.000000e+00 9.659262e-01 2.588177e-01
    outer loop
      vertex 2.900000e+00 2.241407e+01 -5.750000e-01
      vertex 0.000000e+00 2.241407e+01 -5.750000e-01
      vertex 0.000000e+00 2.226000e+01 1.408344e-16
    endloop
  endfacet
  facet normal 0.000000e+00 9.659262e-01 2.588177e-01
    outer loop
      vertex 2.900000e+00 2.241407e+01 -5.750000e-01
      vertex 0.000000e+00 2.226000e+01 1.408344e-16
      vertex 2.900000e+00 2.226000e+01 1.408344e-16
    endloop
  endfacet
  facet normal 0.000000e+00 2.588187e-01 -9.659259e-01
    outer loop
      vertex 0.000000e+00 2.341000e+01 1.150000e+00
      vertex 2.900000e+00 2.283500e+01 9.959292e-01
      vertex 0.000000e+00 2.283500e+01 9.959292e-01
    endloop
  endfacet
  facet normal 0.000000e+00 7.071071e-01 -7.071065e-01
    outer loop
      vertex 0.000000e+00 2.283500e+01 9.959292e-01
      vertex 2.900000e+00 2.283500e+01 9.959292e-01
      vertex 2.900000e+00 2.241407e+01 5.750000e-01
    endloop
  endfacet
  facet normal 0.000000e+00 7.071071e-01 -7.071065e-01
    outer loop
      vertex 0.000000e+00 2.283500e+01 9.959292e-01
      vertex 2.900000e+00 2.241407e+01 5.750000e-01
      vertex 0.000000e+00 2.241407e+01 5.750000e-01
    endloop
  endfacet
  facet normal 0.000000e+00 9.659262e-01 -2.588177e-01
    outer loop
      vertex 0.000000e+00 2.241407e+01 5.750000e-01
      vertex 2.900000e+00 2.241407e+01 5.750000e-01
      vertex 2.900000e+00 2.226000e+01 1.408344e-16
    endloop
  endfacet
  facet normal 0.000000e+00 9.659262e-01 -2.588177e-01
    outer loop
      vertex 0.000000e+00 2.241407e+01 5.750000e-01
      vertex 2.900000e+00 2.226000e+01 1.408344e-16
      vertex 0.000000e+00 2.226000e+01 1.408344e-16
    endloop
  endfacet
  facet normal 0.000000e+00 2.588187e-01 -9.659259e-01
    outer loop
      vertex 2.900000e+00 2.283500e+01 9.959292e-01
      vertex 0.000000e+00 2.341000e+01 1.150000e+00
      vertex 2.900000e+00 2.341000e+01 1.150000e+00
    endloop
  endfacet
  facet normal -0.000000e+00 -2.588187e-01 -9.659259e-01
    outer loop
      vertex 2.900000e+00 2.341000e+01 1.150000e+00
      vertex 0.000000e+00 2.341000e+01 1.150000e+00
      vertex 0.000000e+00 2.398500e+01 9.959292e-01
    endloop
  endfacet
  facet normal 0.000000e+00 -2.588187e-01 -9.659259e-01
    outer loop
      vertex 2.900000e+00 2.341000e+01 1.150000e+00
      vertex 0.000000e+00 2.398500e+01 9.959292e-01
      vertex 2.900000e+00 2.398500e+01 9.959292e-01
    endloop
  endfacet
  facet normal -0.000000e+00 -7.071071e-01 -7.071065e-01
    outer loop
      vertex 2.900000e+00 2.398500e+01 9.959292e-01
      vertex 0.000000e+00 2.398500e+01 9.959292e-01
      vertex 0.000000e+00 2.440593e+01 5.750000e-01
    endloop
  endfacet
  facet normal 0.000000e+00 -7.071071e-01 -7.071065e-01
    outer loop
      vertex 2.900000e+00 2.398500e+01 9.959292e-01
      vertex 0.000000e+00 2.440593e+01 5.750000e-01
      vertex 2.900000e+00 2.440593e+01 5.750000e-01
    endloop
  endfacet
  facet normal -0.000000e+00 -9.659262e-01 -2.588177e-01
    outer loop
      vertex 2.900000e+00 2.440593e+01 5.750000e-01
      vertex 0.000000e+00 2.440593e+01 5.750000e-01
      vertex 0.000000e+00 2.456000e+01 0.000000e+00
    endloop
  endfacet
  facet normal 0.000000e+00 -9.659262e-01 -2.588177e-01
    outer loop
      vertex 2.900000e+00 2.440593e+01 5.750000e-01
      vertex 0.000000e+00 2.456000e+01 0.000000e+00
      vertex 2.900000e+00 2.456000e+01 0.000000e+00
    endloop
  endfacet
  facet normal -1.000000e+00 0.000000e+00 0.000000e+00
    outer loop
      vertex 0.000000e+00 2.398500e+01 9.959292e-01
      vertex 0.000000e+00 2.341000e+01 1.150000e+00
      vertex 0.000000e+00 2.541740e+01 1.315429e+00
    endloop
  endfacet
  facet normal -1.000000e+00 -0.000000e+00 0.000000e+00
    outer loop
      vertex 0.000000e+00 2.479498e+01 -1.960056e+00
      vertex 0.000000e+00 2.395997e+01 -2.336135e+00
      vertex 0.000000e+00 2.542834e+01 -1.298585e+00
    endloop
  endfacet
  facet normal -1.000000e+00 -0.000000e+00 0.000000e+00
    outer loop
      vertex 0.000000e+00 2.542834e+01 -1.298585e+00
      vertex 0.000000e+00 2.395997e+01 -2.336135e+00
      vertex 0.000000e+00 2.341000e+01 -1.150000e+00
    endloop
  endfacet
  facet normal -1.000000e+00 -0.000000e+00 0.000000e+00
    outer loop
      vertex 0.000000e+00 2.395997e+01 -2.336135e+00
      vertex 0.000000e+00 2.304489e+01 -2.372065e+00
      vertex 0.000000e+00 2.341000e+01 -1.150000e+00
    endloop
  endfacet
  facet normal -1.000000e+00 0.000000e+00 0.000000e+00
    outer loop
      vertex 0.000000e+00 2.341000e+01 -1.150000e+00
      vertex 0.000000e+00 2.304489e+01 -2.372065e+00
      vertex 0.000000e+00 2.062766e+01 -2.000000e+00
    endloop
  endfacet
  facet normal -1.000000e+00 -0.000000e+00 0.000000e+00
    outer loop
      vertex 0.000000e+00 2.541740e+01 1.315429e+00
      vertex 0.000000e+00 2.341000e+01 1.150000e+00
      vertex 0.000000e+00 2.477853e+01 1.971577e+00
    endloop
  endfacet
  facet normal -1.000000e+00 -0.000000e+00 0.000000e+00
    outer loop
      vertex 0.000000e+00 2.477853e+01 1.971577e+00
      vertex 0.000000e+00 2.341000e+01 1.150000e+00
      vertex 0.000000e+00 2.394041e+01 2.340656e+00
    endloop
  endfacet
  facet normal -1.000000e+00 0.000000e+00 0.000000e+00
    outer loop
      vertex 0.000000e+00 2.341000e+01 1.150000e+00
      vertex 0.000000e+00 2.075473e+01 2.000000e+00
      vertex 0.000000e+00 2.394041e+01 2.340656e+00
    endloop
  endfacet
  facet normal -1.000000e+00 -0.000000e+00 0.000000e+00
    outer loop
      vertex 0.000000e+00 2.394041e+01 2.340656e+00
      vertex 0.000000e+00 2.075473e+01 2.000000e+00
      vertex 0.000000e+00 2.302505e+01 2.368927e+00
    endloop
  endfacet
  facet normal -1.000000e+00 0.000000e+00 0.000000e+00
    outer loop
      vertex 0.000000e+00 3.849506e-01 -2.368927e+00
      vertex 0.000000e+00 -5.359671e-01 -2.339389e+00
      vertex 0.000000e+00 2.655268e+00 -2.000000e+00
    endloop
  endfacet
  facet normal -1.000000e+00 -0.000000e+00 0.000000e+00
    outer loop
      vertex 0.000000e+00 2.655268e+00 -2.000000e+00
      vertex 0.000000e+00 -5.359671e-01 -2.339389e+00
      vertex 0.000000e+00 -1.232657e-15 -1.150000e+00
    endloop
  endfacet
  facet normal -1.000000e+00 0.000000e+00 0.000000e+00
    outer loop
      vertex 0.000000e+00 -5.359671e-01 -2.339389e+00
      vertex 0.000000e+00 -1.377889e+00 -1.965050e+00
      vertex 0.000000e+00 -1.232657e-15 -1.150000e+00
    endloop
  endfacet
  facet normal -1.000000e+00 0.000000e+00 0.000000e+00
    outer loop
      vertex 0.000000e+00 -1.232657e-15 -1.150000e+00
      vertex 0.000000e+00 -1.377889e+00 -1.965050e+00
      vertex 0.000000e+00 -2.016725e+00 -1.301085e+00
    endloop
  endfacet
  facet normal -1.000000e+00 0.000000e+00 0.000000e+00
    outer loop
      vertex 0.000000e+00 2.341000e+01 1.150000e+00
      vertex 0.000000e+00 -1.849341e-16 1.150000e+00
      vertex 0.000000e+00 2.075473e+01 2.000000e+00
    endloop
  endfacet
  facet normal -1.000000e+00 -0.000000e+00 0.000000e+00
    outer loop
      vertex 0.000000e+00 2.075473e+01 2.000000e+00
      vertex 0.000000e+00 -1.849341e-16 1.150000e+00
      vertex 0.000000e+00 2.483581e+00 2.000000e+00
    endloop
  endfacet
  facet normal -1.000000e+00 0.000000e+00 0.000000e+00
    outer loop
      vertex 0.000000e+00 -1.849341e-16 1.150000e+00
      vertex 0.000000e+00 -5.054649e-01 2.346168e+00
      vertex 0.000000e+00 2.483581e+00 2.000000e+00
    endloop
  endfacet
  facet normal -1.000000e+00 0.000000e+00 0.000000e+00
    outer loop
      vertex 0.000000e+00 2.483581e+00 2.000000e+00
      vertex 0.000000e+00 -5.054649e-01 2.346168e+00
      vertex 0.000000e+00 4.157592e-01 2.363714e+00
    endloop
  endfacet
  facet normal -1.000000e+00 0.000000e+00 0.000000e+00
    outer loop
      vertex 0.000000e+00 -5.750000e-01 9.959292e-01
      vertex 0.000000e+00 -1.999615e+00 1.327230e+00
      vertex 0.000000e+00 -1.849341e-16 1.150000e+00
    endloop
  endfacet
  facet normal -1.000000e+00 0.000000e+00 0.000000e+00
    outer loop
      vertex 0.000000e+00 -1.849341e-16 1.150000e+00
      vertex 0.000000e+00 -1.999615e+00 1.327230e+00
      vertex 0.000000e+00 -1.352189e+00 1.982823e+00
    endloop
  endfacet
  facet normal -1.000000e+00 0.000000e+00 0.000000e+00
    outer loop
      vertex 0.000000e+00 -1.849341e-16 1.150000e+00
      vertex 0.000000e+00 -1.352189e+00 1.982823e+00
      vertex 0.000000e+00 -5.054649e-01 2.346168e+00
    endloop
  endfacet
  facet normal -1.000000e+00 0.000000e+00 0.000000e+00
    outer loop
      vertex 0.000000e+00 -9.959292e-01 -5.750000e-01
      vertex 0.000000e+00 -2.358317e+00 -4.453531e-01
      vertex 0.000000e+00 -1.150000e+00 1.408344e-16
    endloop
  endfacet
  facet normal -1.000000e+00 -0.000000e+00 0.000000e+00
    outer loop
      vertex 0.000000e+00 -1.150000e+00 1.408344e-16
      vertex 0.000000e+00 -2.358317e+00 -4.453531e-01
      vertex 0.000000e+00 -2.352319e+00 4.760185e-01
    endloop
  endfacet
  facet normal -1.000000e+00 0.000000e+00 0.000000e+00
    outer loop
      vertex 0.000000e+00 -1.150000e+00 1.408344e-16
      vertex 0.000000e+00 -2.352319e+00 4.760185e-01
      vertex 0.000000e+00 -9.959292e-01 5.750000e-01
    endloop
  endfacet
  facet normal -1.000000e+00 -0.000000e+00 0.000000e+00
    outer loop
      vertex 0.000000e+00 -9.959292e-01 5.750000e-01
      vertex 0.000000e+00 -2.352319e+00 4.760185e-01
      vertex 0.000000e+00 -1.999615e+00 1.327230e+00
    endloop
  endfacet
  facet normal -1.000000e+00 0.000000e+00 0.000000e+00
    outer loop
      vertex 0.000000e+00 -9.959292e-01 5.750000e-01
      vertex 0.000000e+00 -1.999615e+00 1.327230e+00
      vertex 0.000000e+00 -5.750000e-01 9.959292e-01
    endloop
  endfacet
  facet normal -1.000000e+00 0.000000e+00 0.000000e+00
    outer loop
      vertex 0.000000e+00 2.226000e+01 1.408344e-16
      vertex 0.000000e+00 9.959292e-01 5.750000e-01
      vertex 0.000000e+00 2.241407e+01 5.750000e-01
    endloop
  endfacet
  facet normal -1.000000e+00 0.000000e+00 0.000000e+00
    outer loop
      vertex 0.000000e+00 2.241407e+01 5.750000e-01
      vertex 0.000000e+00 9.959292e-01 5.750000e-01
      vertex 0.000000e+00 5.750000e-01 9.959292e-01
    endloop
  endfacet
  facet normal -1.000000e+00 0.000000e+00 0.000000e+00
    outer loop
      vertex 0.000000e+00 2.241407e+01 5.750000e-01
      vertex 0.000000e+00 5.750000e-01 9.959292e-01
      vertex 0.000000e+00 2.283500e+01 9.959292e-01
    endloop
  endfacet
  facet normal -1.000000e+00 0.000000e+00 0.000000e+00
    outer loop
      vertex 0.000000e+00 2.283500e+01 9.959292e-01
      vertex 0.000000e+00 5.750000e-01 9.959292e-01
      vertex 0.000000e+00 -1.849341e-16 1.150000e+00
    endloop
  endfacet
  facet normal -1.000000e+00 0.000000e+00 0.000000e+00
    outer loop
      vertex 0.000000e+00 2.283500e+01 9.959292e-01
      vertex 0.000000e+00 -1.849341e-16 1.150000e+00
      vertex 0.000000e+00 2.341000e+01 1.150000e+00
    endloop
  endfacet
  facet normal -1.000000e+00 0.000000e+00 0.000000e+00
    outer loop
      vertex 0.000000e+00 9.959292e-01 5.750000e-01
      vertex 0.000000e+00 2.226000e+01 1.408344e-16
      vertex 0.000000e+00 1.150000e+00 0.000000e+00
    endloop
  endfacet
  facet normal -1.000000e+00 0.000000e+00 0.000000e+00
    outer loop
      vertex 0.000000e+00 1.150000e+00 0.000000e+00
      vertex 0.000000e+00 2.226000e+01 1.408344e-16
      vertex 0.000000e+00 2.241407e+01 -5.750000e-01
    endloop
  endfacet
  facet normal -1.000000e+00 0.000000e+00 -0.000000e+00
    outer loop
      vertex 0.000000e+00 1.150000e+00 0.000000e+00
      vertex 0.000000e+00 2.241407e+01 -5.750000e-01
      vertex 0.000000e+00 9.959292e-01 -5.750000e-01
    endloop
  endfacet
  facet normal -1.000000e+00 0.000000e+00 0.000000e+00
    outer loop
      vertex 0.000000e+00 9.959292e-01 -5.750000e-01
      vertex 0.000000e+00 2.241407e+01 -5.750000e-01
      vertex 0.000000e+00 2.283500e+01 -9.959292e-01
    endloop
  endfacet
  facet normal -1.000000e+00 0.000000e+00 -0.000000e+00
    outer loop
      vertex 0.000000e+00 9.959292e-01 -5.750000e-01
      vertex 0.000000e+00 2.283500e+01 -9.959292e-01
      vertex 0.000000e+00 5.750000e-01 -9.959292e-01
    endloop
  endfacet
  facet normal -1.000000e+00 0.000000e+00 0.000000e+00
    outer loop
      vertex 0.000000e+00 5.750000e-01 -9.959292e-01
      vertex 0.000000e+00 2.283500e+01 -9.959292e-01
      vertex 0.000000e+00 2.341000e+01 -1.150000e+00
    endloop
  endfacet
  facet normal -1.000000e+00 0.000000e+00 -0.000000e+00
    outer loop
      vertex 0.000000e+00 5.750000e-01 -9.959292e-01
      vertex 0.000000e+00 2.341000e+01 -1.150000e+00
      vertex 0.000000e+00 -1.232657e-15 -1.150000e+00
    endloop
  endfacet
  facet normal -1.000000e+00 0.000000e+00 0.000000e+00
    outer loop
      vertex 0.000000e+00 -1.232657e-15 -1.150000e+00
      vertex 0.000000e+00 2.341000e+01 -1.150000e+00
      vertex 0.000000e+00 2.062766e+01 -2.000000e+00
    endloop
  endfacet
  facet normal -1.000000e+00 0.000000e+00 0.000000e+00
    outer loop
      vertex 0.000000e+00 -1.232657e-15 -1.150000e+00
      vertex 0.000000e+00 2.062766e+01 -2.000000e+00
      vertex 0.000000e+00 2.655268e+00 -2.000000e+00
    endloop
  endfacet
  facet normal -1.000000e+00 0.000000e+00 0.000000e+00
    outer loop
      vertex 0.000000e+00 2.440593e+01 -5.750000e-01
      vertex 0.000000e+00 2.456000e+01 0.000000e+00
      vertex 0.000000e+00 2.576781e+01 -4.480354e-01
    endloop
  endfacet
  facet normal -1.000000e+00 0.000000e+00 0.000000e+00
    outer loop
      vertex 0.000000e+00 2.576781e+01 -4.480354e-01
      vertex 0.000000e+00 2.456000e+01 0.000000e+00
      vertex 0.000000e+00 2.440593e+01 5.750000e-01
    endloop
  endfacet
  facet normal -1.000000e+00 0.000000e+00 0.000000e+00
    outer loop
      vertex 0.000000e+00 2.576781e+01 -4.480354e-01
      vertex 0.000000e+00 2.440593e+01 5.750000e-01
      vertex 0.000000e+00 2.576398e+01 4.677498e-01
    endloop
  endfacet
  facet normal -1.000000e+00 0.000000e+00 0.000000e+00
    outer loop
      vertex 0.000000e+00 2.576398e+01 4.677498e-01
      vertex 0.000000e+00 2.440593e+01 5.750000e-01
      vertex 0.000000e+00 2.398500e+01 9.959292e-01
    endloop
  endfacet
  facet normal -1.000000e+00 0.000000e+00 0.000000e+00
    outer loop
      vertex 0.000000e+00 2.576398e+01 4.677498e-01
      vertex 0.000000e+00 2.398500e+01 9.959292e-01
      vertex 0.000000e+00 2.541740e+01 1.315429e+00
    endloop
  endfacet
  facet normal -1.000000e+00 0.000000e+00 0.000000e+00
    outer loop
      vertex 0.000000e+00 2.341000e+01 -1.150000e+00
      vertex 0.000000e+00 2.398500e+01 -9.959292e-01
      vertex 0.000000e+00 2.542834e+01 -1.298585e+00
    endloop
  endfacet
  facet normal -1.000000e+00 0.000000e+00 0.000000e+00
    outer loop
      vertex 0.000000e+00 2.542834e+01 -1.298585e+00
      vertex 0.000000e+00 2.398500e+01 -9.959292e-01
      vertex 0.000000e+00 2.440593e+01 -5.750000e-01
    endloop
  endfacet
  facet normal -1.000000e+00 0.000000e+00 0.000000e+00
    outer loop
      vertex 0.000000e+00 2.542834e+01 -1.298585e+00
      vertex 0.000000e+00 2.440593e+01 -5.750000e-01
      vertex 0.000000e+00 2.576781e+01 -4.480354e-01
    endloop
  endfacet
  facet normal -1.000000e+00 0.000000e+00 0.000000e+00
    outer loop
      vertex 0.000000e+00 -2.016725e+00 -1.301085e+00
      vertex 0.000000e+00 -2.358317e+00 -4.453531e-01
      vertex 0.000000e+00 -9.959292e-01 -5.750000e-01
    endloop
  endfacet
  facet normal -1.000000e+00 0.000000e+00 0.000000e+00
    outer loop
      vertex 0.000000e+00 -2.016725e+00 -1.301085e+00
      vertex 0.000000e+00 -9.959292e-01 -5.750000e-01
      vertex 0.000000e+00 -5.750000e-01 -9.959292e-01
    endloop
  endfacet
  facet normal -1.000000e+00 0.000000e+00 0.000000e+00
    outer loop
      vertex 0.000000e+00 -2.016725e+00 -1.301085e+00
      vertex 0.000000e+00 -5.750000e-01 -9.959292e-01
      vertex 0.000000e+00 -1.232657e-15 -1.150000e+00
    endloop
  endfacet
  facet normal 1.000000e+00 0.000000e+00 0.000000e+00
    outer loop
      vertex 2.900000e+00 2.541740e+01 1.315429e+00
      vertex 2.900000e+00 2.341000e+01 1.150000e+00
      vertex 2.900000e+00 2.398500e+01 9.959292e-01
    endloop
  endfacet
  facet normal 1.000000e+00 0.000000e+00 -0.000000e+00
    outer loop
      vertex 2.900000e+00 2.479498e+01 -1.960056e+00
      vertex 2.900000e+00 2.542834e+01 -1.298585e+00
      vertex 2.900000e+00 2.395997e+01 -2.336135e+00
    endloop
  endfacet
  facet normal 1.000000e+00 0.000000e+00 -0.000000e+00
    outer loop
      vertex 2.900000e+00 2.395997e+01 -2.336135e+00
      vertex 2.900000e+00 2.542834e+01 -1.298585e+00
      vertex 2.900000e+00 2.341000e+01 -1.150000e+00
    endloop
  endfacet
  facet normal 1.000000e+00 0.000000e+00 0.000000e+00
    outer loop
      vertex 2.900000e+00 2.395997e+01 -2.336135e+00
      vertex 2.900000e+00 2.341000e+01 -1.150000e+00
      vertex 2.900000e+00 2.304489e+01 -2.372065e+00
    endloop
  endfacet
  facet normal 1.000000e+00 0.000000e+00 -0.000000e+00
    outer loop
      vertex 2.900000e+00 2.304489e+01 -2.372065e+00
      vertex 2.900000e+00 2.341000e+01 -1.150000e+00
      vertex 2.900000e+00 2.062766e+01 -2.000000e+00
    endloop
  endfacet
  facet normal 1.000000e+00 0.000000e+00 0.000000e+00
    outer loop
      vertex 2.900000e+00 2.541740e+01 1.315429e+00
      vertex 2.900000e+00 2.477853e+01 1.971577e+00
      vertex 2.900000e+00 2.341000e+01 1.150000e+00
    endloop
  endfacet
  facet normal 1.000000e+00 0.000000e+00 0.000000e+00
    outer loop
      vertex 2.900000e+00 2.341000e+01 1.150000e+00
      vertex 2.900000e+00 2.477853e+01 1.971577e+00
      vertex 2.900000e+00 2.394041e+01 2.340656e+00
    endloop
  endfacet
  facet normal 1.000000e+00 0.000000e+00 -0.000000e+00
    outer loop
      vertex 2.900000e+00 2.341000e+01 1.150000e+00
      vertex 2.900000e+00 2.394041e+01 2.340656e+00
      vertex 2.900000e+00 2.075473e+01 2.000000e+00
    endloop
  endfacet
  facet normal 1.000000e+00 0.000000e+00 0.000000e+00
    outer loop
      vertex 2.900000e+00 2.075473e+01 2.000000e+00
      vertex 2.900000e+00 2.394041e+01 2.340656e+00
      vertex 2.900000e+00 2.302505e+01 2.368927e+00
    endloop
  endfacet
  facet normal 1.000000e+00 0.000000e+00 -0.000000e+00
    outer loop
      vertex 2.900000e+00 3.849506e-01 -2.368927e+00
      vertex 2.900000e+00 2.655268e+00 -2.000000e+00
      vertex 2.900000e+00 -5.359671e-01 -2.339389e+00
    endloop
  endfacet
  facet normal 1.000000e+00 0.000000e+00 0.000000e+00
    outer loop
      vertex 2.900000e+00 -5.359671e-01 -2.339389e+00
      vertex 2.900000e+00 2.655268e+00 -2.000000e+00
      vertex 2.900000e+00 -1.232657e-15 -1.150000e+00
    endloop
  endfacet
  facet normal 1.000000e+00 0.000000e+00 -0.000000e+00
    outer loop
      vertex 2.900000e+00 -5.359671e-01 -2.339389e+00
      vertex 2.900000e+00 -1.232657e-15 -1.150000e+00
      vertex 2.900000e+00 -1.377889e+00 -1.965050e+00
    endloop
  endfacet
  facet normal 1.000000e+00 0.000000e+00 -0.000000e+00
    outer loop
      vertex 2.900000e+00 -1.377889e+00 -1.965050e+00
      vertex 2.900000e+00 -1.232657e-15 -1.150000e+00
      vertex 2.900000e+00 -2.016725e+00 -1.301085e+00
    endloop
  endfacet
  facet normal 1.000000e+00 0.000000e+00 0.000000e+00
    outer loop
      vertex 2.900000e+00 2.341000e+01 1.150000e+00
      vertex 2.900000e+00 2.075473e+01 2.000000e+00
      vertex 2.900000e+00 -1.849341e-16 1.150000e+00
    endloop
  endfacet
  facet normal 1.000000e+00 0.000000e+00 0.000000e+00
    outer loop
      vertex 2.900000e+00 -1.849341e-16 1.150000e+00
      vertex 2.900000e+00 2.075473e+01 2.000000e+00
      vertex 2.900000e+00 2.483581e+00 2.000000e+00
    endloop
  endfacet
  facet normal 1.000000e+00 0.000000e+00 -0.000000e+00
    outer loop
      vertex 2.900000e+00 -1.849341e-16 1.150000e+00
      vertex 2.900000e+00 2.483581e+00 2.000000e+00
      vertex 2.900000e+00 -5.054649e-01 2.346168e+00
    endloop
  endfacet
  facet normal 1.000000e+00 -0.000000e+00 0.000000e+00
    outer loop
      vertex 2.900000e+00 -5.054649e-01 2.346168e+00
      vertex 2.900000e+00 2.483581e+00 2.000000e+00
      vertex 2.900000e+00 4.157592e-01 2.363714e+00
    endloop
  endfacet
  facet normal 1.000000e+00 0.000000e+00 0.000000e+00
    outer loop
      vertex 2.900000e+00 -5.054649e-01 2.346168e+00
      vertex 2.900000e+00 -1.352189e+00 1.982823e+00
      vertex 2.900000e+00 -1.849341e-16 1.150000e+00
    endloop
  endfacet
  facet normal 1.000000e+00 0.000000e+00 0.000000e+00
    outer loop
      vertex 2.900000e+00 -1.849341e-16 1.150000e+00
      vertex 2.900000e+00 -1.352189e+00 1.982823e+00
      vertex 2.900000e+00 -1.999615e+00 1.327230e+00
    endloop
  endfacet
  facet normal 1.000000e+00 0.000000e+00 0.000000e+00
    outer loop
      vertex 2.900000e+00 -1.849341e-16 1.150000e+00
      vertex 2.900000e+00 -1.999615e+00 1.327230e+00
      vertex 2.900000e+00 -5.750000e-01 9.959292e-01
    endloop
  endfacet
  facet normal 1.000000e+00 0.000000e+00 0.000000e+00
    outer loop
      vertex 2.900000e+00 -5.750000e-01 9.959292e-01
      vertex 2.900000e+00 -1.999615e+00 1.327230e+00
      vertex 2.900000e+00 -9.959292e-01 5.750000e-01
    endloop
  endfacet
  facet normal 1.000000e+00 0.000000e+00 0.000000e+00
    outer loop
      vertex 2.900000e+00 -9.959292e-01 5.750000e-01
      vertex 2.900000e+00 -1.999615e+00 1.327230e+00
      vertex 2.900000e+00 -2.352319e+00 4.760185e-01
    endloop
  endfacet
  facet normal 1.000000e+00 0.000000e+00 0.000000e+00
    outer loop
      vertex 2.900000e+00 -9.959292e-01 5.750000e-01
      vertex 2.900000e+00 -2.352319e+00 4.760185e-01
      vertex 2.900000e+00 -1.150000e+00 1.408344e-16
    endloop
  endfacet
  facet normal 1.000000e+00 0.000000e+00 0.000000e+00
    outer loop
      vertex 2.900000e+00 -1.150000e+00 1.408344e-16
      vertex 2.900000e+00 -2.352319e+00 4.760185e-01
      vertex 2.900000e+00 -2.358317e+00 -4.453531e-01
    endloop
  endfacet
  facet normal 1.000000e+00 0.000000e+00 0.000000e+00
    outer loop
      vertex 2.900000e+00 -1.150000e+00 1.408344e-16
      vertex 2.900000e+00 -2.358317e+00 -4.453531e-01
      vertex 2.900000e+00 -9.959292e-01 -5.750000e-01
    endloop
  endfacet
  facet normal 1.000000e+00 0.000000e+00 0.000000e+00
    outer loop
      vertex 2.900000e+00 2.341000e+01 1.150000e+00
      vertex 2.900000e+00 -1.849341e-16 1.150000e+00
      vertex 2.900000e+00 2.283500e+01 9.959292e-01
    endloop
  endfacet
  facet normal 1.000000e+00 0.000000e+00 0.000000e+00
    outer loop
      vertex 2.900000e+00 2.283500e+01 9.959292e-01
      vertex 2.900000e+00 -1.849341e-16 1.150000e+00
      vertex 2.900000e+00 5.750000e-01 9.959292e-01
    endloop
  endfacet
  facet normal 1.000000e+00 0.000000e+00 0.000000e+00
    outer loop
      vertex 2.900000e+00 2.283500e+01 9.959292e-01
      vertex 2.900000e+00 5.750000e-01 9.959292e-01
      vertex 2.900000e+00 2.241407e+01 5.750000e-01
    endloop
  endfacet
  facet normal 1.000000e+00 0.000000e+00 0.000000e+00
    outer loop
      vertex 2.900000e+00 2.241407e+01 5.750000e-01
      vertex 2.900000e+00 5.750000e-01 9.959292e-01
      vertex 2.900000e+00 9.959292e-01 5.750000e-01
    endloop
  endfacet
  facet normal 1.000000e+00 0.000000e+00 0.000000e+00
    outer loop
      vertex 2.900000e+00 2.241407e+01 5.750000e-01
      vertex 2.900000e+00 9.959292e-01 5.750000e-01
      vertex 2.900000e+00 2.226000e+01 1.408344e-16
    endloop
  endfacet
  facet normal 1.000000e+00 0.000000e+00 0.000000e+00
    outer loop
      vertex 2.900000e+00 2.226000e+01 1.408344e-16
      vertex 2.900000e+00 9.959292e-01 5.750000e-01
      vertex 2.900000e+00 1.150000e+00 0.000000e+00
    endloop
  endfacet
  facet normal 1.000000e+00 0.000000e+00 0.000000e+00
    outer loop
      vertex 2.900000e+00 2.226000e+01 1.408344e-16
      vertex 2.900000e+00 1.150000e+00 0.000000e+00
      vertex 2.900000e+00 2.241407e+01 -5.750000e-01
    endloop
  endfacet
  facet normal 1.000000e+00 0.000000e+00 0.000000e+00
    outer loop
      vertex 2.900000e+00 2.241407e+01 -5.750000e-01
      vertex 2.900000e+00 1.150000e+00 0.000000e+00
      vertex 2.900000e+00 9.959292e-01 -5.750000e-01
    endloop
  endfacet
  facet normal 1.000000e+00 0.000000e+00 0.000000e+00
    outer loop
      vertex 2.900000e+00 2.241407e+01 -5.750000e-01
      vertex 2.900000e+00 9.959292e-01 -5.750000e-01
      vertex 2.900000e+00 2.283500e+01 -9.959292e-01
    endloop
  endfacet
  facet normal 1.000000e+00 0.000000e+00 0.000000e+00
    outer loop
      vertex 2.900000e+00 2.283500e+01 -9.959292e-01
      vertex 2.900000e+00 9.959292e-01 -5.750000e-01
      vertex 2.900000e+00 5.750000e-01 -9.959292e-01
    endloop
  endfacet
  facet normal 1.000000e+00 0.000000e+00 0.000000e+00
    outer loop
      vertex 2.900000e+00 2.283500e+01 -9.959292e-01
      vertex 2.900000e+00 5.750000e-01 -9.959292e-01
      vertex 2.900000e+00 2.341000e+01 -1.150000e+00
    endloop
  endfacet
  facet normal 1.000000e+00 0.000000e+00 0.000000e+00
    outer loop
      vertex 2.900000e+00 2.341000e+01 -1.150000e+00
      vertex 2.900000e+00 5.750000e-01 -9.959292e-01
      vertex 2.900000e+00 -1.232657e-15 -1.150000e+00
    endloop
  endfacet
  facet normal 1.000000e+00 0.000000e+00 0.000000e+00
    outer loop
      vertex 2.900000e+00 2.341000e+01 -1.150000e+00
      vertex 2.900000e+00 -1.232657e-15 -1.150000e+00
      vertex 2.900000e+00 2.062766e+01 -2.000000e+00
    endloop
  endfacet
  facet normal 1.000000e+00 0.000000e+00 0.000000e+00
    outer loop
      vertex 2.900000e+00 2.062766e+01 -2.000000e+00
      vertex 2.900000e+00 -1.232657e-15 -1.150000e+00
      vertex 2.900000e+00 2.655268e+00 -2.000000e+00
    endloop
  endfacet
  facet normal 1.000000e+00 0.000000e+00 0.000000e+00
    outer loop
      vertex 2.900000e+00 2.541740e+01 1.315429e+00
      vertex 2.900000e+00 2.398500e+01 9.959292e-01
      vertex 2.900000e+00 2.576398e+01 4.677498e-01
    endloop
  endfacet
  facet normal 1.000000e+00 0.000000e+00 0.000000e+00
    outer loop
      vertex 2.900000e+00 2.576398e+01 4.677498e-01
      vertex 2.900000e+00 2.398500e+01 9.959292e-01
      vertex 2.900000e+00 2.440593e+01 5.750000e-01
    endloop
  endfacet
  facet normal 1.000000e+00 0.000000e+00 0.000000e+00
    outer loop
      vertex 2.900000e+00 2.576398e+01 4.677498e-01
      vertex 2.900000e+00 2.440593e+01 5.750000e-01
      vertex 2.900000e+00 2.576781e+01 -4.480354e-01
    endloop
  endfacet
  facet normal 1.000000e+00 0.000000e+00 0.000000e+00
    outer loop
      vertex 2.900000e+00 2.576781e+01 -4.480354e-01
      vertex 2.900000e+00 2.440593e+01 5.750000e-01
      vertex 2.900000e+00 2.456000e+01 0.000000e+00
    endloop
  endfacet
  facet normal 1.000000e+00 0.000000e+00 0.000000e+00
    outer loop
      vertex 2.900000e+00 2.576781e+01 -4.480354e-01
      vertex 2.900000e+00 2.456000e+01 0.000000e+00
      vertex 2.900000e+00 2.440593e+01 -5.750000e-01
    endloop
  endfacet
  facet normal 1.000000e+00 0.000000e+00 0.000000e+00
    outer loop
      vertex 2.900000e+00 2.576781e+01 -4.480354e-01
      vertex 2.900000e+00 2.440593e+01 -5.750000e-01
      vertex 2.900000e+00 2.542834e+01 -1.298585e+00
    endloop
  endfacet
  facet normal 1.000000e+00 0.000000e+00 0.000000e+00
    outer loop
      vertex 2.900000e+00 2.542834e+01 -1.298585e+00
      vertex 2.900000e+00 2.440593e+01 -5.750000e-01
      vertex 2.900000e+00 2.398500e+01 -9.959292e-01
    endloop
  endfacet
  facet normal 1.000000e+00 0.000000e+00 0.000000e+00
    outer loop
      vertex 2.900000e+00 2.542834e+01 -1.298585e+00
      vertex 2.900000e+00 2.398500e+01 -9.959292e-01
      vertex 2.900000e+00 2.341000e+01 -1.150000e+00
    endloop
  endfacet
  facet normal 1.000000e+00 0.000000e+00 0.000000e+00
    outer loop
      vertex 2.900000e+00 -2.016725e+00 -1.301085e+00
      vertex 2.900000e+00 -1.232657e-15 -1.150000e+00
      vertex 2.900000e+00 -5.750000e-01 -9.959292e-01
    endloop
  endfacet
  facet normal 1.000000e+00 0.000000e+00 0.000000e+00
    outer loop
      vertex 2.900000e+00 -2.016725e+00 -1.301085e+00
      vertex 2.900000e+00 -5.750000e-01 -9.959292e-01
      vertex 2.900000e+00 -9.959292e-01 -5.750000e-01
    endloop
  endfacet
  facet normal 1.000000e+00 0.000000e+00 -0.000000e+00
    outer loop
      vertex 2.900000e+00 -2.016725e+00 -1.301085e+00
      vertex 2.900000e+00 -9.959292e-01 -5.750000e-01
      vertex 2.900000e+00 -2.358317e+00 -4.453531e-01
    endloop
  endfacet
endsolid
